<svg xmlns="http://www.w3.org/2000/svg" xmlns:xlink="http://www.w3.org/1999/xlink" width="75.007" height="41.081" viewBox="0 0 75.007 41.081">
  <defs>
    <clipPath id="clip-path">
      <rect id="Rectangle_1502" data-name="Rectangle 1502" width="75.007" height="41.081" fill="#3ccac5"/>
    </clipPath>
  </defs>
  <g id="Group_1121" data-name="Group 1121" transform="translate(0 0)">
    <g id="Group_1120" data-name="Group 1120" transform="translate(0 0)" clip-path="url(#clip-path)">
      <path id="Path_620" data-name="Path 620" d="M40.115,37.135A12.231,12.231,0,1,1,62.892,43.3h6.281a17.92,17.92,0,1,0-33.654,0H41.8a12.141,12.141,0,0,1-1.685-6.165" transform="translate(-14.842 -8.285)" fill="#3ccac5"/>
      <rect id="Rectangle_1498" data-name="Rectangle 1498" width="6.647" height="5.689" transform="matrix(0.707, -0.707, 0.707, 0.707, 51.193, 11.139)" fill="#3ccac5"/>
      <rect id="Rectangle_1499" data-name="Rectangle 1499" width="7.82" height="5.689" transform="translate(8.653 26.006)" fill="#3ccac5"/>
      <rect id="Rectangle_1500" data-name="Rectangle 1500" width="6.647" height="5.689" transform="translate(59.707 26.006)" fill="#3ccac5"/>
      <rect id="Rectangle_1501" data-name="Rectangle 1501" width="5.689" height="7.82" transform="translate(15.092 10.461) rotate(-44.997)" fill="#3ccac5"/>
      <path id="Path_621" data-name="Path 621" d="M66.615,6.646V0H60.926v7.82h5.689Z" transform="translate(-26.267 0)" fill="#3ccac5"/>
      <path id="Path_622" data-name="Path 622" d="M54.974,67.242h5.919a12.259,12.259,0,0,0,7.587-5.689H47.388a12.258,12.258,0,0,0,7.586,5.689" transform="translate(-20.431 -26.537)" fill="#3ccac5"/>
      <path id="Path_623" data-name="Path 623" d="M92.926,61.553a17.938,17.938,0,0,1-3.4,5.689H113.6V61.553Z" transform="translate(-38.596 -26.537)" fill="#3ccac5"/>
      <path id="Path_624" data-name="Path 624" d="M0,61.553v5.689H24.081a17.928,17.928,0,0,1-3.4-5.689Z" transform="translate(0 -26.537)" fill="#3ccac5"/>
      <path id="Path_625" data-name="Path 625" d="M78.715,61.553a12.258,12.258,0,0,1-7.586,5.689H81.592A17.938,17.938,0,0,0,85,61.553Z" transform="translate(-30.666 -26.537)" fill="#3ccac5"/>
      <path id="Path_626" data-name="Path 626" d="M42.628,61.553h-6.28a17.928,17.928,0,0,0,3.4,5.689H50.215a12.257,12.257,0,0,1-7.586-5.689" transform="translate(-15.671 -26.537)" fill="#3ccac5"/>
    </g>
  </g>
</svg>