<svg id="Group_1122" data-name="Group 1122" xmlns="http://www.w3.org/2000/svg" xmlns:xlink="http://www.w3.org/1999/xlink" width="57.922" height="57.922" viewBox="0 0 57.922 57.922">
  <defs>
    <clipPath id="clip-path">
      <rect id="Rectangle_1497" data-name="Rectangle 1497" width="57.922" height="57.922" fill="#3ccac5"/>
    </clipPath>
  </defs>
  <g id="Group_1118" data-name="Group 1118" transform="translate(0 0)" clip-path="url(#clip-path)">
    <path id="Path_617" data-name="Path 617" d="M37.2,19.216A17.988,17.988,0,1,0,55.192,37.2,18.008,18.008,0,0,0,37.2,19.216m0,30.265A12.277,12.277,0,1,1,49.482,37.2,12.291,12.291,0,0,1,37.2,49.481" transform="translate(-8.243 -8.243)" fill="#3ccac5"/>
    <path id="Path_618" data-name="Path 618" d="M45.716,88.863v6.672h5.71v-7.85h-5.71Z" transform="translate(-19.61 -37.613)" fill="#3ccac5"/>
    <rect id="Rectangle_1491" data-name="Rectangle 1491" width="7.849" height="5.71" transform="translate(6.464 47.421) rotate(-45)" fill="#3ccac5"/>
    <rect id="Rectangle_1492" data-name="Rectangle 1492" width="6.672" height="5.711" transform="matrix(0.707, -0.707, 0.707, 0.707, 42.703, 11.182)" fill="#3ccac5"/>
    <rect id="Rectangle_1493" data-name="Rectangle 1493" width="7.85" height="5.71" transform="translate(0 26.106)" fill="#3ccac5"/>
    <rect id="Rectangle_1494" data-name="Rectangle 1494" width="6.673" height="5.71" transform="translate(51.25 26.106)" fill="#3ccac5"/>
    <rect id="Rectangle_1495" data-name="Rectangle 1495" width="5.711" height="7.85" transform="translate(6.463 10.501) rotate(-44.997)" fill="#3ccac5"/>
    <rect id="Rectangle_1496" data-name="Rectangle 1496" width="5.71" height="6.672" transform="translate(42.703 46.74) rotate(-45)" fill="#3ccac5"/>
    <path id="Path_619" data-name="Path 619" d="M51.426,6.672V0h-5.71V7.85h5.71Z" transform="translate(-19.61 0)" fill="#3ccac5"/>
  </g>
</svg>